Max Manus var det mest fargerike medlem av den norske motstandsbevegelsen under 2.verdenskrig. I denne filmen får du et innblikk i hvordan hverdagen var for Max og de andre, hva de var med på, hvilke sjanser de tok og hva de satt igjen med da freden endelig kom etter fem lange år. 

Skuespillere Kjersti Holmen, Nicolai Cleve Broch, Aksel Hennie, Stig Henrik Hoff, Viktoria Winge, Mats Eldøen, Christian Rubeck, Knut Joner, Pål Sverre Valheim Hagen, Kyrre Haugen Sydness, Agnes Kittelsen 
Regissør Joachim Roenning, Espen Sandberg 
Originaltittel Max Manus 
Varighet DVD: 1 tim 53 min 
 
General
Complete name                    : E:\Filmer og videoer\MAX_MANUS\Max Manus.DVDrip.Norsk tale.AC3-5.1.Ripp Robban.avi
Format                           : AVI
Format/Info                      : Audio Video Interleave
Format profile                   : OpenDML
File size                        : 1.48 GiB
Duration                         : 1h 53mn
Overall bit rate                 : 1 874 Kbps
Writing application              : Lavf52.78.4

Video
ID                               : 0
Format                           : MPEG-4 Visual
Format profile                   : Advanced Simple@L5
Format settings, BVOP            : 2
Format settings, QPel            : No
Format settings, GMC             : No warppoints
Format settings, Matrix          : Default (H.263)
Muxing mode                      : Packed bitstream
Codec ID                         : XVID
Codec ID/Hint                    : XviD
Duration                         : 1h 53mn
Bit rate                         : 1 478 Kbps
Width                            : 720 pixels
Height                           : 306 pixels
Display aspect ratio             : 2.35:1
Frame rate                       : 25.000 fps
Color space                      : YUV
Chroma subsampling               : 4:2:0
Bit depth                        : 8 bits
Scan type                        : Progressive
Compression mode                 : Lossy
Bits/(Pixel*Frame)               : 0.268
Stream size                      : 1.17 GiB (79%)
Writing library                  : XviD 1.2.1 (UTC 2008-12-04)

Audio
ID                               : 1
Format                           : AC-3
Format/Info                      : Audio Coding 3
Mode extension                   : CM (complete main)
Codec ID                         : 2000
Duration                         : 1h 52mn
Bit rate mode                    : Constant
Bit rate                         : 384 Kbps
Channel(s)                       : 6 channels
Channel positions                : Front: L C R, Side: L R, LFE
Sampling rate                    : 48.0 KHz
Bit depth                        : 16 bits
Compression mode                 : Lossy
Stream size                      : 107 MiB (7%)
Alignment                        : Aligned on interleaves
Interleave, duration             : 93 ms (2.32 video frames)
Interleave, preload duration     : 32 ms

